<?xml version="1.0" standalone="no"?>
<!DOCTYPE svg PUBLIC "-//W3C//DTD SVG 20010904//EN"
 "http://www.w3.org/TR/2001/REC-SVG-20010904/DTD/svg10.dtd">
<svg version="1.0" xmlns="http://www.w3.org/2000/svg"
 width="800.000000pt" height="680.000000pt" viewBox="0 0 800.000000 680.000000"
 preserveAspectRatio="xMidYMid meet">

<g transform="translate(0.000000,680.000000) scale(0.100000,-0.100000)"
fill="#000000" stroke="none">
<path d="M2725 6794 c-282 -32 -646 -172 -1145 -441 -451 -243 -758 -374 -996
-422 -54 -11 -147 -34 -207 -51 -119 -33 -138 -35 -202 -19 -79 20 -125 -6
-125 -71 0 -44 34 -91 77 -108 16 -6 57 -13 92 -15 72 -6 95 -22 106 -74 l6
-32 -57 19 c-76 27 -109 25 -139 -5 -33 -32 -32 -71 6 -215 40 -149 49 -314
25 -410 -20 -75 -61 -153 -122 -228 -24 -30 -44 -61 -44 -70 0 -27 38 -95 77
-138 21 -23 80 -76 130 -118 132 -110 168 -183 128 -260 -8 -15 -15 -51 -15
-80 0 -45 8 -63 60 -150 70 -116 71 -127 34 -266 -34 -128 -43 -318 -21 -407
22 -84 58 -152 130 -248 86 -115 107 -167 107 -267 0 -93 -27 -195 -85 -322
-41 -90 -44 -128 -13 -150 44 -31 102 1 160 88 23 34 43 63 44 65 2 2 32 -23
66 -57 269 -260 534 -402 749 -402 37 0 70 -4 73 -9 3 -5 -8 -55 -24 -112 -33
-115 -36 -154 -17 -202 19 -44 102 -133 209 -223 85 -71 91 -74 126 -68 54 10
102 37 143 81 52 55 72 113 70 205 0 43 2 78 5 78 9 0 87 -41 179 -95 117 -68
200 -98 260 -93 l46 3 -41 -37 c-48 -44 -50 -68 -13 -123 113 -171 201 -216
306 -160 l47 24 70 -36 c87 -45 180 -121 254 -208 31 -36 118 -159 193 -272
76 -113 148 -210 160 -216 27 -12 97 25 219 119 47 35 93 64 104 64 10 0 34
-19 53 -42 39 -48 155 -252 162 -283 2 -11 6 -32 10 -47 8 -43 50 -58 153 -58
96 0 113 8 125 61 9 38 48 91 86 116 29 20 47 23 120 23 47 0 122 -7 166 -15
161 -29 236 -18 299 44 140 137 329 86 776 -208 205 -135 303 -184 380 -189
69 -5 99 9 130 61 24 38 25 68 6 110 -35 76 -46 112 -57 186 -44 289 155 665
524 989 124 110 230 189 332 252 168 102 192 169 144 403 -26 128 -44 152 -82
109 -13 -14 -14 -28 -7 -87 5 -39 14 -86 20 -105 25 -86 6 -158 -53 -196 -208
-132 -325 -222 -486 -379 -320 -310 -481 -612 -481 -900 0 -99 12 -164 47
-259 25 -67 25 -70 7 -83 -38 -28 -131 11 -329 137 -432 275 -538 324 -700
324 -94 0 -145 -19 -216 -82 -26 -23 -60 -43 -80 -46 -19 -4 -88 2 -154 13
-155 25 -275 22 -331 -7 -49 -25 -92 -72 -118 -129 -16 -36 -23 -42 -60 -47
-59 -8 -79 -3 -87 26 -12 44 -109 224 -160 297 -36 52 -62 78 -93 93 -52 25
-76 21 -139 -24 -24 -18 -78 -57 -117 -86 -40 -28 -78 -52 -84 -52 -6 0 -54
66 -106 147 -129 198 -201 294 -288 380 -82 81 -200 159 -285 188 l-56 19 -23
-21 c-33 -31 -74 -44 -100 -34 -23 9 -67 52 -107 105 l-22 29 27 28 c54 57 62
138 17 184 -30 29 -42 31 -69 10 -10 -8 -40 -15 -66 -15 -47 0 -129 36 -238
105 -65 41 -146 75 -180 75 -16 0 -41 -11 -57 -24 -27 -24 -28 -27 -25 -111 3
-100 -17 -158 -65 -193 -60 -42 -71 -40 -165 41 -90 77 -137 127 -157 165 -10
19 -8 40 17 125 41 140 48 192 27 223 -14 22 -21 24 -100 24 -93 0 -163 12
-244 41 -170 62 -283 138 -498 336 -61 57 -120 103 -131 103 -10 0 -27 -9 -37
-20 -10 -11 -20 -19 -21 -17 -2 2 6 37 18 78 15 52 21 104 22 174 1 92 -1 105
-31 166 -17 37 -61 108 -98 158 -36 50 -78 119 -92 153 -38 90 -37 246 0 401
30 121 34 210 13 262 -8 19 -32 60 -54 92 -53 79 -56 92 -34 160 45 136 3 221
-188 379 -87 71 -149 142 -134 152 21 15 86 114 113 173 49 106 65 209 52 342
-6 62 -24 163 -40 225 -33 131 -35 129 73 86 76 -30 96 -29 114 9 11 22 11 42
2 100 -13 83 -33 123 -78 154 l-33 21 58 17 c52 16 175 46 308 76 206 47 511
181 995 438 655 348 1005 451 1355 397 121 -19 141 -27 148 -66 12 -57 106
-237 151 -287 43 -47 95 -80 165 -102 59 -19 197 -13 326 15 236 50 300 57
410 44 55 -7 109 -14 120 -16 89 -17 428 -26 820 -21 708 8 1000 -12 1312 -94
112 -29 234 -77 261 -101 36 -33 95 -165 137 -308 42 -140 57 -170 85 -170 37
0 41 31 16 131 -48 190 -120 353 -186 418 -58 58 -302 137 -540 175 -240 38
-278 40 -995 42 -600 2 -732 5 -850 19 -256 31 -330 31 -500 -5 -323 -68 -406
-63 -506 27 -32 29 -119 173 -119 197 0 3 40 -16 88 -41 76 -39 92 -44 110
-34 27 14 29 61 5 83 -69 60 -254 146 -381 178 -77 20 -284 33 -367 24z"/>
<path d="M3851 5500 c-114 -24 -229 -120 -272 -225 l-24 -60 0 -1460 0 -1460
23 -65 c49 -143 120 -216 351 -359 167 -103 280 -173 796 -489 567 -348 576
-353 638 -369 90 -23 150 -8 279 71 57 34 195 119 308 188 113 70 304 187 425
261 159 97 222 142 229 159 14 38 -1 76 -35 93 -28 15 -33 15 -67 -2 -34 -17
-255 -152 -806 -493 -110 -67 -215 -127 -234 -132 -52 -14 -86 -2 -221 82
-124 77 -1135 697 -1302 798 -110 68 -164 121 -203 202 l-31 65 0 1450 0 1450
27 42 c52 80 138 121 228 109 25 -3 82 -20 125 -37 447 -172 953 -259 1425
-246 423 12 751 71 1135 204 250 86 263 89 327 74 67 -14 132 -66 159 -125 17
-38 19 -77 19 -549 l0 -508 25 -24 c30 -31 77 -33 105 -5 19 19 20 33 20 538
0 457 -2 524 -17 568 -34 103 -101 177 -203 227 -58 28 -74 31 -155 31 -83 -1
-100 -5 -225 -51 -279 -105 -536 -168 -845 -210 -166 -22 -645 -25 -810 -4
-349 42 -629 111 -945 233 -83 31 -180 42 -249 28z"/>
<path d="M3962 5077 l-22 -24 2 -1344 3 -1345 25 -37 c27 -40 35 -45 410 -276
776 -477 1031 -631 1048 -631 10 0 108 55 218 123 109 68 298 183 419 257 121
74 228 143 237 152 24 24 23 59 -3 92 -37 47 -59 39 -342 -136 -144 -89 -323
-198 -397 -243 l-135 -81 -180 111 c-99 61 -286 175 -415 255 -583 357 -706
433 -722 448 -17 14 -18 87 -18 1268 l0 1253 73 -25 c242 -83 504 -140 847
-186 128 -17 702 -17 830 0 344 46 526 84 770 161 69 21 132 41 140 43 13 3
15 -25 18 -192 2 -183 4 -195 24 -217 42 -45 111 -17 123 49 3 18 5 140 3 271
l-3 239 -25 20 c-32 26 -51 22 -234 -41 -404 -140 -768 -199 -1231 -199 -471
0 -859 66 -1284 217 -63 23 -124 41 -136 41 -12 0 -31 -10 -43 -23z"/>
<path d="M6815 4318 c-41 -22 -45 -37 -45 -170 0 -94 -3 -130 -12 -132 -7 -2
-57 -13 -110 -24 -121 -26 -226 -69 -325 -134 -74 -48 -186 -151 -234 -215
l-24 -32 -113 64 c-62 36 -123 65 -135 65 -47 -1 -82 -54 -65 -101 6 -18 33
-40 86 -69 42 -24 94 -54 114 -67 l37 -22 -26 -63 c-80 -196 -82 -445 -7 -653
14 -38 26 -74 27 -78 1 -5 -47 -38 -108 -73 -119 -69 -141 -95 -123 -145 8
-25 44 -49 71 -49 7 0 64 30 127 66 l115 65 18 -23 c132 -166 279 -272 463
-332 64 -21 181 -46 217 -46 4 0 7 -61 7 -135 0 -122 2 -137 20 -155 25 -25
71 -26 101 -1 23 18 24 26 27 155 l4 135 36 6 c269 42 477 162 633 363 l26 34
115 -66 c63 -36 124 -66 135 -66 27 0 73 47 73 74 0 36 -21 55 -136 122 -60
34 -108 67 -107 71 2 4 20 55 40 113 l37 105 0 175 c0 174 0 175 -35 275 -19
55 -37 106 -40 114 -3 10 32 35 104 76 114 66 136 86 137 123 0 29 -42 72 -72
72 -13 0 -74 -29 -137 -64 l-114 -64 -37 47 c-133 168 -346 295 -569 338 l-90
18 -3 132 c-3 117 -5 135 -23 152 -27 25 -56 33 -80 19z m272 -491 c254 -90
437 -277 514 -527 20 -64 24 -96 24 -220 0 -133 -2 -152 -28 -230 -63 -188
-165 -321 -326 -425 -132 -85 -268 -125 -431 -125 -163 0 -299 40 -430 125
-514 332 -467 1087 85 1359 125 62 199 77 370 72 130 -3 160 -7 222 -29z"/>
<path d="M6429 3632 c-186 -96 -160 -360 41 -427 112 -37 238 23 288 138 19
44 15 142 -7 186 -61 119 -203 165 -322 103z m168 -144 c16 -15 23 -33 23 -60
0 -93 -118 -119 -158 -34 -40 82 68 157 135 94z"/>
<path d="M6870 3580 c-25 -25 -26 -71 -1 -101 19 -23 23 -24 186 -24 163 0
167 1 186 24 25 30 24 62 -2 95 l-20 26 -165 0 c-151 0 -166 -2 -184 -20z"/>
<path d="M7108 3320 c-52 -13 -111 -52 -148 -99 l-32 -39 -90 -4 c-80 -3 -92
-6 -109 -27 -26 -31 -24 -73 4 -99 18 -17 37 -22 97 -24 74 -3 74 -3 80 -33
15 -70 77 -146 148 -182 51 -25 183 -25 233 0 48 24 106 82 132 132 25 50 27
162 3 217 -51 117 -195 189 -318 158z m130 -160 c56 -35 76 -122 39 -170 -56
-73 -174 -64 -212 16 -19 40 -19 56 -1 99 17 40 68 75 111 75 17 0 45 -9 63
-20z"/>
<path d="M6161 3124 c-12 -15 -21 -34 -21 -44 0 -10 9 -29 21 -44 19 -25 25
-26 110 -26 101 0 129 15 129 70 0 55 -28 70 -129 70 -85 0 -91 -1 -110 -26z"/>
<path d="M6494 2936 c-48 -21 -101 -83 -120 -138 -49 -147 77 -301 233 -285
62 6 132 44 161 85 80 115 43 270 -80 333 -44 23 -147 25 -194 5z m140 -147
c53 -41 23 -129 -44 -129 -33 0 -80 38 -80 64 0 27 22 64 44 74 32 16 51 14
80 -9z"/>
<path d="M6942 2650 c-22 -9 -42 -46 -42 -76 0 -8 11 -26 25 -39 23 -24 30
-25 150 -25 120 0 127 1 150 25 30 29 32 64 6 96 -18 23 -26 24 -143 26 -67 2
-133 -2 -146 -7z"/>
<path d="M4922 4187 c-16 -17 -22 -37 -24 -91 l-3 -70 -35 -8 c-121 -28 -199
-69 -287 -152 l-65 -60 -63 34 c-54 29 -68 33 -92 25 -36 -13 -58 -53 -49 -89
6 -24 20 -36 110 -91 15 -9 15 -16 -4 -89 -25 -100 -25 -182 0 -281 11 -43 17
-81 14 -84 -3 -3 -29 -20 -57 -37 -62 -36 -79 -71 -56 -112 8 -15 27 -31 43
-37 24 -8 38 -4 91 24 l63 34 49 -48 c81 -82 200 -147 298 -164 l40 -6 5 -79
c5 -85 19 -106 70 -106 51 0 65 21 70 107 5 74 6 78 30 81 93 12 227 82 308
163 l53 52 64 -34 c53 -28 67 -32 91 -24 16 6 35 22 43 36 22 40 7 76 -45 107
-81 48 -77 38 -54 126 24 96 25 161 4 258 -24 107 -25 104 36 140 65 39 83 74
59 116 -8 15 -27 31 -42 37 -24 8 -38 4 -92 -25 l-63 -34 -68 63 c-73 69 -176
125 -266 145 l-53 11 -3 70 c-3 79 -26 115 -72 115 -15 0 -36 -10 -48 -23z
m167 -326 c199 -62 323 -239 308 -440 -13 -177 -154 -340 -328 -380 -342 -79
-636 272 -490 585 91 195 312 297 510 235z"/>
<path d="M4941 3664 c-12 -15 -21 -34 -21 -44 0 -10 9 -29 21 -44 20 -25 23
-26 133 -26 128 0 146 9 146 72 0 59 -20 68 -148 68 -108 0 -111 -1 -131 -26z"/>
<path d="M4703 3520 c-48 -20 -58 -87 -17 -119 39 -31 132 -30 162 2 31 33 29
80 -4 106 -28 22 -99 28 -141 11z"/>
<path d="M4948 3310 c-36 -28 -38 -77 -5 -108 20 -19 35 -22 106 -22 74 0 84
2 106 25 30 29 32 64 6 96 -17 21 -29 24 -103 27 -73 3 -86 1 -110 -18z"/>
</g>
</svg>
